<?xml version="1.0" encoding="UTF-8" standalone="no"?>
<!-- Created with Inkscape (http://www.inkscape.org/) -->

<svg
   xmlns:dc="http://purl.org/dc/elements/1.1/"
   xmlns:cc="http://creativecommons.org/ns#"
   xmlns:rdf="http://www.w3.org/1999/02/22-rdf-syntax-ns#"
   xmlns:svg="http://www.w3.org/2000/svg"
   xmlns="http://www.w3.org/2000/svg"
   xmlns:sodipodi="http://sodipodi.sourceforge.net/DTD/sodipodi-0.dtd"
   xmlns:inkscape="http://www.inkscape.org/namespaces/inkscape"
   width="210mm"
   height="297mm"
   id="svg5044"
   version="1.1"
   inkscape:version="0.48.1 r9760"
   inkscape:export-filename="/home/rocknroll/IME/Submissions/Ontobras2011/Poster/beamerposter-example2/figures/usp/logos/bannerHorizontal.png"
   inkscape:export-xdpi="75"
   inkscape:export-ydpi="75"
   sodipodi:docname="usp-ccsl.svg">
  <defs
     id="defs5046" />
  <sodipodi:namedview
     id="base"
     pagecolor="#ffffff"
     bordercolor="#666666"
     borderopacity="1.0"
     inkscape:pageopacity="0.0"
     inkscape:pageshadow="2"
     inkscape:zoom="0.98994949"
     inkscape:cx="223.9714"
     inkscape:cy="388.9373"
     inkscape:document-units="px"
     inkscape:current-layer="layer1"
     showgrid="false"
     inkscape:window-width="1366"
     inkscape:window-height="744"
     inkscape:window-x="0"
     inkscape:window-y="24"
     inkscape:window-maximized="1"
     showguides="true"
     inkscape:guide-bbox="true">
    <sodipodi:guide
       orientation="1,0"
       position="9.0913729,382.84782"
       id="guide3064" />
    <sodipodi:guide
       orientation="1,0"
       position="738.42151,439.41636"
       id="guide3066" />
    <sodipodi:guide
       orientation="1,0"
       position="361.63461,425.27422"
       id="guide3068" />
  </sodipodi:namedview>
  <metadata
     id="metadata5049">
    <rdf:RDF>
      <cc:Work
         rdf:about="">
        <dc:format>image/svg+xml</dc:format>
        <dc:type
           rdf:resource="http://purl.org/dc/dcmitype/StillImage" />
        <dc:title></dc:title>
      </cc:Work>
    </rdf:RDF>
  </metadata>
  <g
     inkscape:label="Camada 1"
     inkscape:groupmode="layer"
     id="layer1">
    <text
       id="text2389"
       y="513.8147"
       x="377.59631"
       style="font-size:159.53675842px;font-style:normal;font-variant:normal;font-weight:bold;font-stretch:normal;text-align:start;line-height:125%;writing-mode:lr-tb;text-anchor:start;fill:#000000;fill-opacity:1;stroke:none;display:inline;font-family:Bitstream Vera Sans;-inkscape-font-specification:Bitstream Vera Sans Bold"
       xml:space="preserve"
       sodipodi:linespacing="125%"
       transform="scale(0.89251782,1.1204258)"
       inkscape:export-filename="/home/paulormm/usp/mypapers/cbsoft2011-sbes25/presentation/poster/figures/usp/logos/LogoUSP.png"
       inkscape:export-xdpi="90.085739"
       inkscape:export-ydpi="90.085739"><tspan
         style="font-size:159.53675842px;font-style:normal;font-variant:normal;font-weight:bold;font-stretch:normal;text-align:start;line-height:125%;writing-mode:lr-tb;text-anchor:start;fill:#000000;fill-opacity:1;stroke:none;font-family:Bitstream Vera Sans;-inkscape-font-specification:Bitstream Vera Sans Bold"
         y="513.8147"
         x="377.59631"
         id="tspan2391"
         sodipodi:role="line">CCSL</tspan></text>
    <path
       inkscape:connector-curvature="0"
       style="fill:#000000;fill-opacity:1;stroke:none"
       d="M 28.705849,575.0652 C 20.931745,571.67922 13.073775,562.0592 10.611045,552.9129 9.3944247,548.3944 8.8119752,525.73507 9.123166,495.02183 l 0.5112482,-50.46682 53.6657048,0 c 52.388261,0 53.665871,-1.08567 53.665871,3.83319 0,5.51994 -1.45774,3.86835 -22.520319,4.37328 l -22.520674,0.53997 0,46.89678 0,46.89677 -4.791524,0 -4.791642,0 0,-46.95761 0,-46.95761 -22.04119,0 -22.041409,0 0,47.01917 c 0,51.17489 0.825609,56.16078 10.567874,63.82403 4.945688,3.89029 7.347219,4.15494 37.701628,4.15494 37.974776,0 41.932456,-1.20085 47.820066,-14.51094 4.64956,-10.51134 9.48574,-11.21638 12.8636,-1.87531 1.31523,3.63738 5.00457,8.81254 8.19853,11.49989 5.72525,4.81735 6.26636,4.88636 38.33819,4.88636 35.99713,0 41.46071,-1.33853 46.68283,-11.43688 1.59904,-3.09236 2.90729,-10.18201 2.90729,-15.75512 l 0,-10.13263 -26.30664,-26.3571 C 172.05453,479.47013 170.89399,477.97087 174.05491,474.81 c 3.16087,-3.16075 4.73131,-1.92902 31.09834,24.39096 l 27.76922,27.71977 0,12.66068 c 0,16.12471 -5.61097,27.6761 -16.43511,33.83578 -6.97301,3.968 -9.92973,4.28318 -40.4599,4.31247 -18.64431,0.018 -35.27857,-0.85125 -38.33276,-2.00277 -2.96745,-1.11862 -8.11902,-4.66073 -11.44779,-7.87088 -5.97575,-5.76334 -6.07927,-5.78632 -8.2097,-1.80549 -1.18661,2.21754 -5.5443,5.75943 -9.68393,7.87105 -6.69155,3.41402 -11.199913,3.83133 -40.664289,3.76471 -23.194642,-0.0524 -34.892201,-0.839 -38.983142,-2.62108 z m 208.049961,-2.09568 0,-4.7916 20.1247,0 20.12468,0 0,-46.9577 0,-46.95744 4.79167,0 4.79147,0 0,24.91635 0,24.91621 22.0414,0 22.04132,0 0,-25.96976 c 0,-28.18694 -1.42193,-33.5966 -10.76179,-40.94324 -4.71442,-3.70825 -7.52336,-4.00256 -38.22389,-4.00256 l -33.13562,0 -6.15768,5.18124 c -3.38648,2.84981 -7.34556,8.02461 -8.79749,11.49991 -3.36566,8.05491 -7.56156,8.05491 -10.92706,0 -1.45208,-3.4753 -5.41113,-8.6501 -8.79791,-11.49991 l -6.15725,-5.18124 -33.13576,0 c -30.70056,0 -33.50954,0.29446 -38.22391,4.00256 -7.2536,5.70572 -10.76182,13.57737 -10.76182,24.14803 l 0,9.17432 26.30674,26.35714 c 24.97823,25.02614 26.13854,26.52519 22.97782,29.6861 -3.16082,3.16078 -4.73143,1.92904 -31.09824,-24.39095 l -27.76955,-27.71989 0,-12.08012 c 0,-17.74902 8.18042,-31.59851 21.68706,-36.71605 3.02682,-1.14681 19.25203,-2.04427 36.95685,-2.04427 34.19441,0 40.2321,1.28318 48.56846,10.32183 l 4.67216,5.06577 5.86912,-5.65948 c 9.00919,-8.68725 14.14878,-9.72812 48.03557,-9.72812 32.54544,0 39.00077,1.14451 46.66487,8.27343 10.31265,9.59238 11.79258,15.88059 11.79258,50.10769 l 0,31.70077 -26.83295,0 -26.83303,0 0,22.04142 0,22.04118 -24.91618,0 -24.91634,0 0,-4.79162 z"
       id="path2393"
       sodipodi:nodetypes="cscccscccccccccccssssssscccscccsssssssccccccccccccccscccsscccscccscccsscccssccccccccc"
       inkscape:export-filename="/home/paulormm/usp/mypapers/cbsoft2011-sbes25/presentation/poster/figures/usp/logos/LogoUSP.png"
       inkscape:export-xdpi="90.085739"
       inkscape:export-ydpi="90.085739" />
    <text
       xml:space="preserve"
       style="font-size:53.13483047px;font-style:normal;font-variant:normal;font-weight:bold;font-stretch:normal;text-align:start;line-height:125%;writing-mode:lr-tb;text-anchor:start;fill:#800000;fill-opacity:1;stroke:none;display:inline;font-family:DejaVu Sans;-inkscape-font-specification:DejaVu Sans Bold"
       x="10.121754"
       y="572.38727"
       id="text2395"
       sodipodi:linespacing="125%"
       transform="scale(0.91133196,1.097295)"
       inkscape:export-filename="/home/paulormm/usp/mypapers/cbsoft2011-sbes25/presentation/poster/figures/usp/logos/LogoUSP.png"
       inkscape:export-xdpi="90.085739"
       inkscape:export-ydpi="90.085739"><tspan
         sodipodi:role="line"
         x="10.121754"
         y="572.38727"
         style="font-size:53.13483047px;font-style:normal;font-variant:normal;font-weight:bold;font-stretch:normal;text-align:start;line-height:125%;writing-mode:lr-tb;text-anchor:start;fill:#800000;fill-opacity:1;stroke:none;font-family:DejaVu Sans;-inkscape-font-specification:DejaVu Sans Bold"
         id="tspan2397">FLOSS Competence Center</tspan></text>
    <text
       id="text2389-4"
       y="710.26093"
       x="344.79056"
       style="font-size:159.53675842px;font-style:normal;font-variant:normal;font-weight:bold;font-stretch:normal;text-align:start;line-height:125%;writing-mode:lr-tb;text-anchor:start;fill:#000000;fill-opacity:1;stroke:none;display:inline;font-family:Bitstream Vera Sans;-inkscape-font-specification:Bitstream Vera Sans Bold"
       xml:space="preserve"
       sodipodi:linespacing="125%"
       transform="scale(0.89251782,1.1204258)"
       inkscape:export-filename="/home/paulormm/usp/mypapers/cbsoft2011-sbes25/presentation/poster/figures/usp/logos/LogoUSP.png"
       inkscape:export-xdpi="90.085739"
       inkscape:export-ydpi="90.085739"><tspan
         style="font-size:159.53675842px;font-style:normal;font-variant:normal;font-weight:bold;font-stretch:normal;text-align:start;line-height:125%;writing-mode:lr-tb;text-anchor:start;fill:#000000;fill-opacity:1;stroke:none;font-family:Bitstream Vera Sans;-inkscape-font-specification:Bitstream Vera Sans Bold"
         y="710.26093"
         x="344.79056"
         id="tspan2391-7"
         sodipodi:role="line">UFBA</tspan></text>
    <text
       id="text2389-4-3"
       y="705.96545"
       x="-3.2589006"
       style="font-size:159.53675841999995555px;font-style:normal;font-variant:normal;font-weight:bold;font-stretch:normal;text-align:start;line-height:125%;writing-mode:lr-tb;text-anchor:start;fill:#214478;fill-opacity:1;stroke:none;display:inline;font-family:Bitstream Vera Sans;-inkscape-font-specification:Bitstream Vera Sans Bold"
       xml:space="preserve"
       sodipodi:linespacing="125%"
       transform="scale(0.89251782,1.1204258)"
       inkscape:export-filename="/home/paulormm/usp/mypapers/cbsoft2011-sbes25/presentation/poster/figures/usp/logos/LogoUSP.png"
       inkscape:export-xdpi="90.085739"
       inkscape:export-ydpi="90.085739"><tspan
         style="font-size:159.53675841999995555px;font-style:normal;font-variant:normal;font-weight:bold;font-stretch:normal;text-align:start;line-height:125%;writing-mode:lr-tb;text-anchor:start;fill:#214478;fill-opacity:1;stroke:none;font-family:Bitstream Vera Sans;-inkscape-font-specification:Bitstream Vera Sans Bold"
         y="705.96545"
         x="-3.2589006"
         id="tspan2391-7-5"
         sodipodi:role="line">DCC</tspan></text>
    <text
       xml:space="preserve"
       style="font-size:40px;font-style:normal;font-weight:normal;line-height:125%;letter-spacing:0px;word-spacing:0px;fill:#cccccc;fill-opacity:1;stroke:none;font-family:Sans"
       x="11.091372"
       y="659.51434"
       id="text3112"
       sodipodi:linespacing="125%"
       inkscape:export-filename="/home/paulormm/usp/mypapers/cbsoft2011-sbes25/presentation/poster/figures/usp/logos/LogoUSP.png"
       inkscape:export-xdpi="90.085739"
       inkscape:export-ydpi="90.085739"><tspan
         sodipodi:role="line"
         id="tspan3114"
         x="11.091372"
         y="659.51434">--------------------------------------------------</tspan></text>
  </g>
</svg>
