<?xml version="1.0" encoding="UTF-8" standalone="no"?>
<!-- Created with Inkscape (http://www.inkscape.org/) -->

<svg
   xmlns:osb="http://www.openswatchbook.org/uri/2009/osb"
   xmlns:dc="http://purl.org/dc/elements/1.1/"
   xmlns:cc="http://creativecommons.org/ns#"
   xmlns:rdf="http://www.w3.org/1999/02/22-rdf-syntax-ns#"
   xmlns:svg="http://www.w3.org/2000/svg"
   xmlns="http://www.w3.org/2000/svg"
   xmlns:sodipodi="http://sodipodi.sourceforge.net/DTD/sodipodi-0.dtd"
   xmlns:inkscape="http://www.inkscape.org/namespaces/inkscape"
   width="343pt"
   height="340pt"
   viewBox="0 0 343 340"
   id="svg3384"
   version="1.1"
   inkscape:version="0.91 r13725"
   sodipodi:docname="architecture-1.svg"
   inkscape:export-filename="/home/tallys/git/mezuro-articles/oss-tools-2017-ej/images/architecture-1.png"
   inkscape:export-xdpi="90"
   inkscape:export-ydpi="90">
  <defs
     id="defs3386">
    <marker
       inkscape:stockid="Arrow1Lend"
       orient="auto"
       refY="0.0"
       refX="0.0"
       id="Arrow1Lend"
       style="overflow:visible;"
       inkscape:isstock="true">
      <path
         id="path6505"
         d="M 0.0,0.0 L 5.0,-5.0 L -12.5,0.0 L 5.0,5.0 L 0.0,0.0 z "
         style="fill-rule:evenodd;stroke:#000000;stroke-width:1.0pt;"
         transform="scale(0.8) rotate(180) translate(12.5,0)" />
    </marker>
    <inkscape:perspective
       sodipodi:type="inkscape:persp3d"
       inkscape:vp_x="0 : 170 : 1"
       inkscape:vp_y="0 : 1000 : 0"
       inkscape:vp_z="343 : 170 : 1"
       inkscape:persp3d-origin="171.5 : 113.33333 : 1"
       id="perspective5896" />
    <linearGradient
       id="linearGradient5657"
       osb:paint="solid">
      <stop
         style="stop-color:#ceaca3;stop-opacity:0.01960784;"
         offset="0"
         id="stop5659" />
    </linearGradient>
    <linearGradient
       inkscape:collect="always"
       id="linearGradient5639"
       osb:paint="gradient">
      <stop
         style="stop-color:#b2aca3;stop-opacity:0;"
         offset="0"
         id="stop5641" />
      <stop
         style="stop-color:#0000ff;stop-opacity:0;"
         offset="1"
         id="stop5643" />
    </linearGradient>
  </defs>
  <sodipodi:namedview
     pagecolor="#ffffff"
     bordercolor="#666666"
     borderopacity="1.0"
     inkscape:pageopacity="0.0"
     inkscape:pageshadow="2"
     inkscape:zoom="1"
     inkscape:cx="212.69111"
     inkscape:cy="234.40881"
     inkscape:document-units="pt"
     inkscape:current-layer="g7892"
     id="namedview3388"
     showgrid="false"
     inkscape:snap-center="false"
     inkscape:snap-others="false"
     inkscape:snap-global="false"
     inkscape:window-width="1366"
     inkscape:window-height="717"
     inkscape:window-x="0"
     inkscape:window-y="0"
     inkscape:window-maximized="1"
     showguides="false">
    <inkscape:grid
       type="xygrid"
       id="grid8053" />
  </sodipodi:namedview>
  <metadata
     id="metadata3390">
    <rdf:RDF>
      <cc:Work
         rdf:about="">
        <dc:format>image/svg+xml</dc:format>
        <dc:type
           rdf:resource="http://purl.org/dc/dcmitype/StillImage" />
        <dc:title></dc:title>
      </cc:Work>
    </rdf:RDF>
  </metadata>
  <g
     inkscape:label="Layer 1"
     inkscape:groupmode="layer"
     id="layer1">
    <g
       id="g7892"
       transform="translate(0,-4.8)">
      <g
         id="g8060">
        <g
           id="g8020">
          <path
             sodipodi:nodetypes="ccccccccccccccccccccccccccccscccccc"
             inkscape:connector-curvature="0"
             id="path5830"
             d="m 194.27597,66.935243 c -3.53813,0.0048 -6.97567,1.512024 -9.77649,4.287595 -2.05608,-1.428299 -4.42537,-2.18808 -6.84382,-2.194661 -6.50088,0.0094 -12.00573,5.380512 -12.9138,12.600764 -0.24506,-0.0296 -0.49102,-0.04497 -0.73713,-0.04617 -4.58926,-3.16e-4 -8.30983,4.839407 -8.31014,10.809891 0.003,0.476509 0.03,0.952232 0.0812,1.424068 -6.2888,2.30759 -10.16147,6.54493 -10.1726,11.13048 0.006,4.18042 3.22488,8.10007 8.63804,10.51707 -0.21337,0.8943 -0.32347,1.81222 -0.32787,2.73406 0.003,5.87276 4.22403,10.8014 9.79485,11.43563 -0.19496,0.93367 -0.19983,-0.35812 -0.20338,0.60917 4.8e-4,6.16273 3.75801,13.41261 8.5109,13.41256 3.08545,-0.003 5.93374,-2.14641 7.4655,-5.61917 1.45796,0.93154 3.20599,1.43374 4.99976,1.43639 2.41739,-0.003 4.72123,-0.91511 6.34803,-2.50907 0.67301,5.87722 4.13724,10.18118 8.19474,10.18111 2.7258,-0.003 5.27734,-1.96897 6.82808,-5.26163 1.79404,0.70563 3.70525,1.07052 5.63453,1.07574 4.20737,-0.007 8.22955,-1.72148 11.1353,-4.74686 1.46185,2.1139 3.70358,3.3497 6.07788,3.35055 4.26151,7.1e-4 7.71665,-3.902 7.71731,-8.71695 -9.4e-4,-1.33201 -0.27371,-2.64584 -0.79483,-3.84064 4.88088,-2.89053 7.90906,-8.35769 7.91668,-14.29298 -0.006,-1.45111 -0.1926,-2.89498 -0.5561,-4.29377 6.00601,-1.15384 7.0791,-4.3338 7.0868,-7.91247 -9e-4,-4.622103 -3.67665,-8.368761 -11.87144,-8.36865 -0.99162,0.0033 -1.98024,0.06167 -2.95103,0.175766 0.76786,-1.336835 1.17022,-2.83693 1.16992,-4.361569 -9.4e-4,-5.006517 -4.25198,-9.064742 -9.49583,-9.065276 -0.25127,7.51e-4 -0.50242,0.0119 -0.75284,0.03077 -0.87604,-5.665079 -5.18808,-9.795059 -10.22767,-9.795799 -3.31816,0.0048 -6.43448,1.819416 -8.38625,4.882486 -2.97789,-5.667174 -7.95372,-9.065368 -13.27841,-9.068352 z"
             style="fill:#800080;fill-opacity:0.16673255;stroke:#000000;stroke-width:1.45587814;stroke-linecap:butt;stroke-opacity:1" />
          <path
             inkscape:connector-curvature="0"
             id="path5780"
             d="m 57.291381,84.455196 -26.341167,0 0,49.164924 41.277927,0 0,-36.286022 -14.93676,-12.878902 z"
             style="fill:#800080;fill-opacity:0.16470588;fill-rule:evenodd;stroke:#000000;stroke-width:0.62173736px;stroke-linecap:butt;stroke-linejoin:miter;stroke-opacity:1" />
          <text
             transform="scale(1.0109598,0.98915901)"
             sodipodi:linespacing="125%"
             id="text5782"
             y="116.39455"
             x="50.480274"
             style="font-style:normal;font-variant:normal;font-weight:500;font-stretch:normal;font-size:32.35592651px;line-height:125%;font-family:aakar;-inkscape-font-specification:'aakar Medium';letter-spacing:0px;word-spacing:0px;fill:#800080;fill-opacity:1;stroke:none;stroke-width:1px;stroke-linecap:butt;stroke-linejoin:miter;stroke-opacity:1"
             xml:space="preserve"><tspan
               style="font-style:normal;font-variant:normal;font-weight:500;font-stretch:normal;font-size:16.17796326px;font-family:aakar;-inkscape-font-specification:'aakar Medium';text-align:center;text-anchor:middle;fill:#800080"
               y="116.39455"
               x="50.480274"
               id="tspan5784"
               sodipodi:role="line">App</tspan></text>
          <path
             inkscape:connector-curvature="0"
             id="path5788"
             d="m 81.548864,113.88862 60.164946,-0.35474"
             style="fill:none;fill-rule:evenodd;stroke:#000000;stroke-width:0.30535376px;stroke-linecap:butt;stroke-linejoin:miter;stroke-opacity:1" />
          <path
             inkscape:connector-curvature="0"
             id="path5876"
             d="m 208.29356,170.49024 -0.2778,-18.19315"
             style="fill:none;fill-rule:evenodd;stroke:#000000;stroke-width:0.45678771;stroke-linecap:butt;stroke-linejoin:miter;stroke-miterlimit:4;stroke-dasharray:none;stroke-opacity:1" />
          <path
             inkscape:connector-curvature="0"
             d="m 317.33848,90.358517 a 15.698347,7.899773 0 0 1 -15.69836,7.89977 15.698347,7.899773 0 0 1 -15.69834,-7.89977 15.698347,7.899773 0 0 1 15.69834,-7.899772 15.698347,7.899773 0 0 1 15.69836,7.899772 z m -31.59767,0.756518 0,34.502805 c -0.1948,11.36768 32.08744,10.92029 31.85425,0.20098 l -0.20473,-34.703785 -0.0661,0 c -0.91188,3.988643 -7.67932,7.001848 -15.73093,7.004189 -8.04752,-0.005 -14.80882,-3.017556 -15.72025,-7.004189 z"
             style="fill:#800080;fill-opacity:0.16470588;stroke:#000000;stroke-width:0.45021892;stroke-linecap:butt;stroke-opacity:1"
             id="path6047-0" />
          <path
             inkscape:connector-curvature="0"
             d="m 316.92893,196.42029 a 15.698347,7.899773 0 0 1 -15.69835,7.89978 15.698347,7.899773 0 0 1 -15.69835,-7.89978 15.698347,7.899773 0 0 1 15.69835,-7.89976 15.698347,7.899773 0 0 1 15.69835,7.89976 z m -31.59766,0.75653 0,34.5028 c -0.19479,11.36767 32.08743,10.92029 31.85426,0.20097 l -0.20474,-34.70377 -0.0661,0 c -0.91188,3.98864 -7.67932,7.00184 -15.73092,7.00418 -8.04753,-0.005 -14.80883,-3.01755 -15.72026,-7.00418 z"
             style="fill:#800080;fill-opacity:0.16470588;stroke:#000000;stroke-width:0.45021892;stroke-linecap:butt;stroke-opacity:1"
             id="path6047-0-4" />
          <path
             inkscape:connector-curvature="0"
             id="path7442"
             d="m 71.953993,114.04261 9.349822,-1.7443 0.15257,3.44891 z"
             style="fill:none;fill-rule:evenodd;stroke:#000000;stroke-width:0.51361179px;stroke-linecap:butt;stroke-linejoin:miter;stroke-opacity:1" />
          <path
             inkscape:connector-curvature="0"
             id="path7442-4"
             d="m 151.03813,113.69186 -9.38431,1.5174 -0.0796,-3.45173 z"
             style="fill:none;fill-rule:evenodd;stroke:#000000;stroke-width:0.51361179px;stroke-linecap:butt;stroke-linejoin:miter;stroke-opacity:1" />
          <path
             inkscape:transform-center-y="14.484147"
             inkscape:transform-center-x="12.037783"
             inkscape:connector-curvature="0"
             id="path7442-4-99"
             d="m 208.26396,142.03373 1.27425,10.20224 -3.22438,0.0331 z"
             style="fill:none;fill-rule:evenodd;stroke:#000000;stroke-width:0.51695907px;stroke-linecap:butt;stroke-linejoin:miter;stroke-opacity:1" />
          <path
             inkscape:connector-curvature="0"
             d="m 241.17291,223.04404 9.611,-1.7428 0.15685,3.44595 z m 44.18626,0.2046 -9.64646,1.51609 -0.0818,-3.44876 z m -9.43455,-0.22137 -4.18708,0.0172 -20.9548,0.086"
             style="fill:none;fill-rule:evenodd;stroke:#000000;stroke-width:0.5205127px;stroke-linecap:butt;stroke-linejoin:miter;stroke-opacity:1"
             id="path7442-9-1" />
          <path
             inkscape:transform-center-y="-15.251513"
             inkscape:transform-center-x="-10.94805"
             inkscape:connector-curvature="0"
             id="path7442-4-99-6"
             d="m 208.7916,180.54119 -1.82902,-10.10519 3.21707,-0.23455 z"
             style="fill:none;fill-rule:evenodd;stroke:#000000;stroke-width:0.51695907px;stroke-linecap:butt;stroke-linejoin:miter;stroke-opacity:1" />
          <path
             sodipodi:nodetypes="ccccccccccccccccccccccccccccscccccc"
             inkscape:connector-curvature="0"
             id="path5830-3"
             d="m 192.39384,173.75715 c -3.53813,0.005 -6.97568,1.51202 -9.7765,4.28758 -2.05607,-1.4283 -4.42536,-2.18807 -6.84381,-2.19465 -6.50088,0.009 -12.00573,5.38051 -12.9138,12.60076 -0.24506,-0.0296 -0.49102,-0.045 -0.73713,-0.0462 -4.58926,-3.2e-4 -8.30984,4.83939 -8.31015,10.80989 0.003,0.47651 0.0302,0.95222 0.0813,1.42406 -6.2888,2.30759 -10.16146,6.54493 -10.17259,11.13048 0.006,4.18042 3.22488,8.10007 8.63804,10.51706 -0.21338,0.89431 -0.32347,1.81222 -0.32787,2.73407 0.003,5.87275 4.22403,10.80139 9.79484,11.43562 -0.19496,0.93367 -0.19982,-0.35811 -0.20337,0.60917 4.8e-4,6.16274 3.75801,13.41261 8.5109,13.41256 3.08545,-0.003 5.93374,-2.14639 7.4655,-5.61916 1.45796,0.93155 3.20598,1.43374 4.99976,1.43639 2.41739,-0.003 4.72122,-0.91512 6.34803,-2.50907 0.67299,5.87722 4.13724,10.18119 8.19474,10.18112 2.72579,-0.003 5.27734,-1.96899 6.82808,-5.26165 1.79404,0.70564 3.70524,1.07052 5.63453,1.07575 4.20737,-0.007 8.22954,-1.72148 11.13529,-4.74687 1.46186,2.1139 3.70358,3.34972 6.07789,3.35057 4.2615,7.1e-4 7.71664,-3.90202 7.71731,-8.71696 -7.6e-4,-1.33202 -0.27371,-2.64585 -0.79483,-3.84065 4.88088,-2.89053 7.90906,-8.35769 7.91668,-14.29297 -0.006,-1.45111 -0.1926,-2.89498 -0.55611,-4.29378 6.00602,-1.15384 7.07911,-4.33379 7.08681,-7.91246 -7.4e-4,-4.62211 -3.67666,-8.36876 -11.87144,-8.36865 -0.99162,0.003 -1.98025,0.0617 -2.95103,0.17577 0.76785,-1.33684 1.17022,-2.83693 1.16992,-4.36158 -7.6e-4,-5.00652 -4.25198,-9.06474 -9.49583,-9.06527 -0.25127,7.5e-4 -0.50243,0.0119 -0.75284,0.0308 -0.87604,-5.66509 -5.18809,-9.79507 -10.22768,-9.79581 -3.31815,0.005 -6.43447,1.81942 -8.38624,4.8825 -2.9779,-5.66718 -7.95372,-9.06537 -13.27841,-9.06835 z"
             style="fill:#800080;fill-opacity:0.16673255;stroke:#000000;stroke-width:1.45587814;stroke-linecap:butt;stroke-opacity:1" />
          <text
             transform="scale(1.0726307,0.93228731)"
             sodipodi:linespacing="125%"
             id="text7596"
             y="106.19913"
             x="157.82352"
             style="font-style:normal;font-weight:normal;font-size:34.32971573px;line-height:125%;font-family:sans-serif;letter-spacing:0px;word-spacing:0px;fill:#000000;fill-opacity:1;stroke:none;stroke-width:1px;stroke-linecap:butt;stroke-linejoin:miter;stroke-opacity:1"
             xml:space="preserve"><tspan
               style="font-size:17.16485786px"
               y="106.19913"
               x="157.82352"
               id="tspan7598"
               sodipodi:role="line">E.J. </tspan><tspan
               id="tspan7600"
               style="font-size:17.16485786px"
               y="127.6552"
               x="157.82352"
               sodipodi:role="line">Server</tspan></text>
          <text
             transform="scale(1.0726307,0.93228731)"
             sodipodi:linespacing="125%"
             id="text7596-9"
             y="223.58693"
             x="155.44617"
             style="font-style:normal;font-weight:normal;font-size:34.32971573px;line-height:125%;font-family:sans-serif;letter-spacing:0px;word-spacing:0px;fill:#000000;fill-opacity:1;stroke:none;stroke-width:1px;stroke-linecap:butt;stroke-linejoin:miter;stroke-opacity:1"
             xml:space="preserve"><tspan
               style="font-size:17.16485786px"
               y="223.58693"
               x="155.44617"
               id="tspan7598-3"
               sodipodi:role="line">Polis</tspan><tspan
               id="tspan7600-3"
               style="font-size:17.16485786px"
               y="245.043"
               x="155.44617"
               sodipodi:role="line">Server</tspan></text>
          <path
             d="m 243.00899,116.7868 9.34982,-1.74428 0.15257,3.44891 z m 42.98546,0.20479 -9.38432,1.51739 -0.0796,-3.45172 z m -9.17815,-0.22157 -4.0733,0.0172 -20.38533,0.0861"
             style="fill:none;fill-rule:evenodd;stroke:#000000;stroke-width:0.51361179px;stroke-linecap:butt;stroke-linejoin:miter;stroke-opacity:1"
             id="path7442-9-1-4"
             inkscape:connector-curvature="0" />
          <text
             transform="scale(0.96677225,1.0343698)"
             sodipodi:linespacing="125%"
             id="text7643"
             y="92.800095"
             x="309.17755"
             style="font-style:normal;font-weight:normal;font-size:15.47084904px;line-height:125%;font-family:sans-serif;letter-spacing:0px;word-spacing:0px;fill:#000000;fill-opacity:1;stroke:none;stroke-width:1px;stroke-linecap:butt;stroke-linejoin:miter;stroke-opacity:1"
             xml:space="preserve"><tspan
               style="font-style:normal;font-variant:normal;font-weight:normal;font-stretch:normal;font-size:8.70235252px;font-family:Waree;-inkscape-font-specification:Waree"
               y="92.800095"
               x="309.17755"
               id="tspan7645"
               sodipodi:role="line">D</tspan><tspan
               style="font-style:normal;font-variant:normal;font-weight:normal;font-stretch:normal;font-size:8.70235252px;font-family:Waree;-inkscape-font-specification:Waree"
               id="tspan7647"
               y="103.67803"
               x="309.17755"
               sodipodi:role="line">A</tspan><tspan
               style="font-style:normal;font-variant:normal;font-weight:normal;font-stretch:normal;font-size:8.70235252px;font-family:Waree;-inkscape-font-specification:Waree"
               id="tspan7649"
               y="114.55598"
               x="309.17755"
               sodipodi:role="line">T</tspan><tspan
               style="font-style:normal;font-variant:normal;font-weight:normal;font-stretch:normal;font-size:8.70235252px;font-family:Waree;-inkscape-font-specification:Waree"
               id="tspan7651"
               y="125.43391"
               x="309.17755"
               sodipodi:role="line">A</tspan></text>
          <text
             transform="scale(0.96677224,1.0343698)"
             sodipodi:linespacing="125%"
             id="text7643-0"
             y="196.07339"
             x="309.272"
             style="font-style:normal;font-weight:normal;font-size:15.47084904px;line-height:125%;font-family:sans-serif;letter-spacing:0px;word-spacing:0px;fill:#000000;fill-opacity:1;stroke:none;stroke-width:1px;stroke-linecap:butt;stroke-linejoin:miter;stroke-opacity:1"
             xml:space="preserve"><tspan
               style="font-style:normal;font-variant:normal;font-weight:normal;font-stretch:normal;font-size:8.70235252px;font-family:Waree;-inkscape-font-specification:Waree"
               y="196.07339"
               x="309.272"
               id="tspan7645-0"
               sodipodi:role="line">D</tspan><tspan
               style="font-style:normal;font-variant:normal;font-weight:normal;font-stretch:normal;font-size:8.70235252px;font-family:Waree;-inkscape-font-specification:Waree"
               id="tspan7647-1"
               y="206.95134"
               x="309.272"
               sodipodi:role="line">A</tspan><tspan
               style="font-style:normal;font-variant:normal;font-weight:normal;font-stretch:normal;font-size:8.70235252px;font-family:Waree;-inkscape-font-specification:Waree"
               id="tspan7649-3"
               y="217.82927"
               x="309.272"
               sodipodi:role="line">T</tspan><tspan
               style="font-style:normal;font-variant:normal;font-weight:normal;font-stretch:normal;font-size:8.70235252px;font-family:Waree;-inkscape-font-specification:Waree"
               id="tspan7651-3"
               y="228.70721"
               x="309.272"
               sodipodi:role="line">A</tspan></text>
        </g>
        <rect
           y="44"
           x="15.2"
           height="232.8"
           width="320"
           id="rect8055"
           style="opacity:1;fill:#800080;fill-opacity:0;stroke:#000000;stroke-width:0.671;stroke-linecap:butt;stroke-miterlimit:4;stroke-dasharray:none;stroke-dashoffset:0;stroke-opacity:1" />
      </g>
    </g>
  </g>
</svg>
